SplineFontDB: 3.2
FontName: Schulrechner-Regular
FullName: Schulrechner Regular
FamilyName: Schulrechner
Weight: Regular
Copyright: Copyright (c) 2025, Joris SchollS
UComments: "2025-4-12: Created with FontForge (http://fontforge.org)"
Version: 001.000
ItalicAngle: 0
UnderlinePosition: -10
UnderlineWidth: 5
Ascent: 108
Descent: 0
InvalidEm: 0
LayerCount: 2
Layer: 0 0 "Back" 1
Layer: 1 0 "Fore" 0
XUID: [1021 121 -1838891423 8674590]
StyleMap: 0x0000
FSType: 0
OS2Version: 0
OS2_WeightWidthSlopeOnly: 0
OS2_UseTypoMetrics: 1
CreationTime: 1744471654
ModificationTime: 1751357290
OS2TypoAscent: 0
OS2TypoAOffset: 1
OS2TypoDescent: 0
OS2TypoDOffset: 1
OS2TypoLinegap: 10
OS2WinAscent: 0
OS2WinAOffset: 1
OS2WinDescent: 0
OS2WinDOffset: 1
HheadAscent: 0
HheadAOffset: 1
HheadDescent: 0
HheadDOffset: 1
OS2Vendor: 'PfEd'
MarkAttachClasses: 1
DEI: 91125

StartChar: zero
Encoding: 48 48 0
Width: 72
Flags: HW
LayerCount: 2
Fore
SplineSet
48 24 m 1
 59 24 l 1
 59 13 l 1
 48 13 l 1
 48 24 l 1
48 36 m 1
 59 36 l 1
 59 25 l 1
 48 25 l 1
 48 36 l 1
48 48 m 1
 59 48 l 1
 59 37 l 1
 48 37 l 1
 48 48 l 1
48 60 m 1
 59 60 l 1
 59 49 l 1
 48 49 l 1
 48 60 l 1
48 72 m 1
 59 72 l 1
 59 61 l 1
 48 61 l 1
 48 72 l 1
48 84 m 1
 59 84 l 1
 59 73 l 1
 48 73 l 1
 48 84 l 1
48 96 m 1
 59 96 l 1
 59 85 l 1
 48 85 l 1
 48 96 l 1
36 12 m 1
 47 12 l 1
 47 1 l 1
 36 1 l 1
 36 12 l 1
36 108 m 1
 47 108 l 1
 47 97 l 1
 36 97 l 1
 36 108 l 1
24 12 m 1
 35 12 l 1
 35 1 l 1
 24 1 l 1
 24 12 l 1
24 108 m 1
 35 108 l 1
 35 97 l 1
 24 97 l 1
 24 108 l 1
12 12 m 1
 23 12 l 1
 23 1 l 1
 12 1 l 1
 12 12 l 1
12 108 m 1
 23 108 l 1
 23 97 l 1
 12 97 l 1
 12 108 l 1
0 24 m 1
 11 24 l 1
 11 13 l 1
 0 13 l 1
 0 24 l 1
0 36 m 1
 11 36 l 1
 11 25 l 1
 0 25 l 1
 0 36 l 1
0 48 m 1
 11 48 l 1
 11 37 l 1
 0 37 l 1
 0 48 l 1
0 60 m 1
 11 60 l 1
 11 49 l 1
 0 49 l 1
 0 60 l 1
0 72 m 1
 11 72 l 1
 11 61 l 1
 0 61 l 1
 0 72 l 1
0 84 m 1
 11 84 l 1
 11 73 l 1
 0 73 l 1
 0 84 l 1
0 96 m 1
 11 96 l 1
 11 85 l 1
 0 85 l 1
 0 96 l 1
EndSplineSet
Validated: 1
EndChar

StartChar: one
Encoding: 49 49 1
Width: 72
Flags: HW
LayerCount: 2
Fore
SplineSet
36 12 m 1
 47 12 l 1
 47 1 l 1
 36 1 l 1
 36 12 l 1
24 12 m 1
 35 12 l 1
 35 1 l 1
 24 1 l 1
 24 12 l 1
24 24 m 1
 35 24 l 1
 35 13 l 1
 24 13 l 1
 24 24 l 1
24 36 m 1
 35 36 l 1
 35 25 l 1
 24 25 l 1
 24 36 l 1
24 48 m 1
 35 48 l 1
 35 37 l 1
 24 37 l 1
 24 48 l 1
24 60 m 1
 35 60 l 1
 35 49 l 1
 24 49 l 1
 24 60 l 1
24 72 m 1
 35 72 l 1
 35 61 l 1
 24 61 l 1
 24 72 l 1
24 84 m 1
 35 84 l 1
 35 73 l 1
 24 73 l 1
 24 84 l 1
24 96 m 1
 35 96 l 1
 35 85 l 1
 24 85 l 1
 24 96 l 1
24 108 m 1
 35 108 l 1
 35 97 l 1
 24 97 l 1
 24 108 l 1
12 12 m 1
 23 12 l 1
 23 1 l 1
 12 1 l 1
 12 12 l 1
12 96 m 1
 23 96 l 1
 23 85 l 1
 12 85 l 1
 12 96 l 1
EndSplineSet
Validated: 1
EndChar

StartChar: two
Encoding: 50 50 2
Width: 72
Flags: HW
LayerCount: 2
Fore
SplineSet
48 12 m 1
 59 12 l 1
 59 1 l 1
 48 1 l 1
 48 12 l 1
48 72 m 1
 59 72 l 1
 59 61 l 1
 48 61 l 1
 48 72 l 1
48 84 m 1
 59 84 l 1
 59 73 l 1
 48 73 l 1
 48 84 l 1
48 96 m 1
 59 96 l 1
 59 85 l 1
 48 85 l 1
 48 96 l 1
36 12 m 1
 47 12 l 1
 47 1 l 1
 36 1 l 1
 36 12 l 1
36 60 m 1
 47 60 l 1
 47 49 l 1
 36 49 l 1
 36 60 l 1
36 108 m 1
 47 108 l 1
 47 97 l 1
 36 97 l 1
 36 108 l 1
24 12 m 1
 35 12 l 1
 35 1 l 1
 24 1 l 1
 24 12 l 1
24 48 m 1
 35 48 l 1
 35 37 l 1
 24 37 l 1
 24 48 l 1
24 108 m 1
 35 108 l 1
 35 97 l 1
 24 97 l 1
 24 108 l 1
12 12 m 1
 23 12 l 1
 23 1 l 1
 12 1 l 1
 12 12 l 1
12 36 m 1
 23 36 l 1
 23 25 l 1
 12 25 l 1
 12 36 l 1
12 108 m 1
 23 108 l 1
 23 97 l 1
 12 97 l 1
 12 108 l 1
0 12 m 1
 11 12 l 1
 11 1 l 1
 0 1 l 1
 0 12 l 1
0 24 m 1
 11 24 l 1
 11 13 l 1
 0 13 l 1
 0 24 l 1
0 84 m 1
 11 84 l 1
 11 73 l 1
 0 73 l 1
 0 84 l 1
0 96 m 1
 11 96 l 1
 11 85 l 1
 0 85 l 1
 0 96 l 1
EndSplineSet
Validated: 1
EndChar

StartChar: three
Encoding: 51 51 3
Width: 72
Flags: HW
LayerCount: 2
Fore
SplineSet
48 24 m 1
 59 24 l 1
 59 13 l 1
 48 13 l 1
 48 24 l 1
48 36 m 1
 59 36 l 1
 59 25 l 1
 48 25 l 1
 48 36 l 1
48 48 m 1
 59 48 l 1
 59 37 l 1
 48 37 l 1
 48 48 l 1
48 72 m 1
 59 72 l 1
 59 61 l 1
 48 61 l 1
 48 72 l 1
48 84 m 1
 59 84 l 1
 59 73 l 1
 48 73 l 1
 48 84 l 1
48 96 m 1
 59 96 l 1
 59 85 l 1
 48 85 l 1
 48 96 l 1
36 12 m 1
 47 12 l 1
 47 1 l 1
 36 1 l 1
 36 12 l 1
36 60 m 1
 47 60 l 1
 47 49 l 1
 36 49 l 1
 36 60 l 1
36 108 m 1
 47 108 l 1
 47 97 l 1
 36 97 l 1
 36 108 l 1
24 12 m 1
 35 12 l 1
 35 1 l 1
 24 1 l 1
 24 12 l 1
24 60 m 1
 35 60 l 1
 35 49 l 1
 24 49 l 1
 24 60 l 1
24 108 m 1
 35 108 l 1
 35 97 l 1
 24 97 l 1
 24 108 l 1
12 12 m 1
 23 12 l 1
 23 1 l 1
 12 1 l 1
 12 12 l 1
12 108 m 1
 23 108 l 1
 23 97 l 1
 12 97 l 1
 12 108 l 1
0 24 m 1
 11 24 l 1
 11 13 l 1
 0 13 l 1
 0 24 l 1
0 36 m 1
 11 36 l 1
 11 25 l 1
 0 25 l 1
 0 36 l 1
0 84 m 1
 11 84 l 1
 11 73 l 1
 0 73 l 1
 0 84 l 1
0 96 m 1
 11 96 l 1
 11 85 l 1
 0 85 l 1
 0 96 l 1
EndSplineSet
Validated: 1
EndChar

StartChar: plus
Encoding: 43 43 4
Width: 72
Flags: HW
LayerCount: 2
Fore
SplineSet
48 60 m 1
 59 60 l 1
 59 49 l 1
 48 49 l 1
 48 60 l 1
36 60 m 1
 47 60 l 1
 47 49 l 1
 36 49 l 1
 36 60 l 1
24 36 m 1
 35 36 l 1
 35 25 l 1
 24 25 l 1
 24 36 l 1
24 48 m 1
 35 48 l 1
 35 37 l 1
 24 37 l 1
 24 48 l 1
24 60 m 1
 35 60 l 1
 35 49 l 1
 24 49 l 1
 24 60 l 1
24 72 m 1
 35 72 l 1
 35 61 l 1
 24 61 l 1
 24 72 l 1
24 84 m 1
 35 84 l 1
 35 73 l 1
 24 73 l 1
 24 84 l 1
12 60 m 1
 23 60 l 1
 23 49 l 1
 12 49 l 1
 12 60 l 1
0 60 m 1
 11 60 l 1
 11 49 l 1
 0 49 l 1
 0 60 l 1
EndSplineSet
Validated: 1
EndChar

StartChar: bar
Encoding: 124 124 5
Width: 72
Flags: HW
LayerCount: 2
Fore
SplineSet
12 12 m 1
 23 12 l 1
 23 1 l 1
 12 1 l 1
 12 12 l 1
12 24 m 1
 23 24 l 1
 23 13 l 1
 12 13 l 1
 12 24 l 1
12 36 m 1
 23 36 l 1
 23 25 l 1
 12 25 l 1
 12 36 l 1
12 48 m 1
 23 48 l 1
 23 37 l 1
 12 37 l 1
 12 48 l 1
12 60 m 1
 23 60 l 1
 23 49 l 1
 12 49 l 1
 12 60 l 1
12 72 m 1
 23 72 l 1
 23 61 l 1
 12 61 l 1
 12 72 l 1
12 84 m 1
 23 84 l 1
 23 73 l 1
 12 73 l 1
 12 84 l 1
12 96 m 1
 23 96 l 1
 23 85 l 1
 12 85 l 1
 12 96 l 1
12 108 m 1
 23 108 l 1
 23 97 l 1
 12 97 l 1
 12 108 l 1
0 12 m 1
 11 12 l 1
 11 1 l 1
 0 1 l 1
 0 12 l 1
0 24 m 1
 11 24 l 1
 11 13 l 1
 0 13 l 1
 0 24 l 1
0 36 m 1
 11 36 l 1
 11 25 l 1
 0 25 l 1
 0 36 l 1
0 48 m 1
 11 48 l 1
 11 37 l 1
 0 37 l 1
 0 48 l 1
0 60 m 1
 11 60 l 1
 11 49 l 1
 0 49 l 1
 0 60 l 1
0 72 m 1
 11 72 l 1
 11 61 l 1
 0 61 l 1
 0 72 l 1
0 84 m 1
 11 84 l 1
 11 73 l 1
 0 73 l 1
 0 84 l 1
0 96 m 1
 11 96 l 1
 11 85 l 1
 0 85 l 1
 0 96 l 1
0 108 m 1
 11 108 l 1
 11 97 l 1
 0 97 l 1
 0 108 l 1
EndSplineSet
Validated: 1
EndChar

StartChar: five
Encoding: 53 53 6
Width: 72
Flags: HW
LayerCount: 2
Fore
SplineSet
48 24 m 1
 59 24 l 1
 59 13 l 1
 48 13 l 1
 48 24 l 1
48 36 m 1
 59 36 l 1
 59 25 l 1
 48 25 l 1
 48 36 l 1
48 48 m 1
 59 48 l 1
 59 37 l 1
 48 37 l 1
 48 48 l 1
48 60 m 1
 59 60 l 1
 59 49 l 1
 48 49 l 1
 48 60 l 1
48 108 m 1
 59 108 l 1
 59 97 l 1
 48 97 l 1
 48 108 l 1
36 12 m 1
 47 12 l 1
 47 1 l 1
 36 1 l 1
 36 12 l 1
36 72 m 1
 47 72 l 1
 47 61 l 1
 36 61 l 1
 36 72 l 1
36 108 m 1
 47 108 l 1
 47 97 l 1
 36 97 l 1
 36 108 l 1
24 12 m 1
 35 12 l 1
 35 1 l 1
 24 1 l 1
 24 12 l 1
24 72 m 1
 35 72 l 1
 35 61 l 1
 24 61 l 1
 24 72 l 1
24 108 m 1
 35 108 l 1
 35 97 l 1
 24 97 l 1
 24 108 l 1
12 12 m 1
 23 12 l 1
 23 1 l 1
 12 1 l 1
 12 12 l 1
12 72 m 1
 23 72 l 1
 23 61 l 1
 12 61 l 1
 12 72 l 1
12 108 m 1
 23 108 l 1
 23 97 l 1
 12 97 l 1
 12 108 l 1
0 24 m 1
 11 24 l 1
 11 13 l 1
 0 13 l 1
 0 24 l 1
0 60 m 1
 11 60 l 1
 11 49 l 1
 0 49 l 1
 0 60 l 1
0 72 m 1
 11 72 l 1
 11 61 l 1
 0 61 l 1
 0 72 l 1
0 84 m 1
 11 84 l 1
 11 73 l 1
 0 73 l 1
 0 84 l 1
0 96 m 1
 11 96 l 1
 11 85 l 1
 0 85 l 1
 0 96 l 1
0 108 m 1
 11 108 l 1
 11 97 l 1
 0 97 l 1
 0 108 l 1
EndSplineSet
Validated: 1
EndChar

StartChar: A
Encoding: 65 65 7
Width: 72
Flags: HW
LayerCount: 2
Fore
SplineSet
48 12 m 1
 59 12 l 1
 59 1 l 1
 48 1 l 1
 48 12 l 1
48 24 m 1
 59 24 l 1
 59 13 l 1
 48 13 l 1
 48 24 l 1
48 36 m 1
 59 36 l 1
 59 25 l 1
 48 25 l 1
 48 36 l 1
48 48 m 1
 59 48 l 1
 59 37 l 1
 48 37 l 1
 48 48 l 1
48 60 m 1
 59 60 l 1
 59 49 l 1
 48 49 l 1
 48 60 l 1
48 72 m 1
 59 72 l 1
 59 61 l 1
 48 61 l 1
 48 72 l 1
36 48 m 1
 47 48 l 1
 47 37 l 1
 36 37 l 1
 36 48 l 1
36 84 m 1
 47 84 l 1
 47 73 l 1
 36 73 l 1
 36 84 l 1
36 96 m 1
 47 96 l 1
 47 85 l 1
 36 85 l 1
 36 96 l 1
24 48 m 1
 35 48 l 1
 35 37 l 1
 24 37 l 1
 24 48 l 1
24 108 m 1
 35 108 l 1
 35 97 l 1
 24 97 l 1
 24 108 l 1
12 48 m 1
 23 48 l 1
 23 37 l 1
 12 37 l 1
 12 48 l 1
12 84 m 1
 23 84 l 1
 23 73 l 1
 12 73 l 1
 12 84 l 1
12 96 m 1
 23 96 l 1
 23 85 l 1
 12 85 l 1
 12 96 l 1
0 12 m 1
 11 12 l 1
 11 1 l 1
 0 1 l 1
 0 12 l 1
0 24 m 1
 11 24 l 1
 11 13 l 1
 0 13 l 1
 0 24 l 1
0 36 m 1
 11 36 l 1
 11 25 l 1
 0 25 l 1
 0 36 l 1
0 48 m 1
 11 48 l 1
 11 37 l 1
 0 37 l 1
 0 48 l 1
0 60 m 1
 11 60 l 1
 11 49 l 1
 0 49 l 1
 0 60 l 1
0 72 m 1
 11 72 l 1
 11 61 l 1
 0 61 l 1
 0 72 l 1
EndSplineSet
Validated: 1
EndChar

StartChar: four
Encoding: 52 52 8
Width: 72
Flags: HW
LayerCount: 2
Fore
SplineSet
48 36 m 1
 59 36 l 1
 59 25 l 1
 48 25 l 1
 48 36 l 1
36 12 m 1
 47 12 l 1
 47 1 l 1
 36 1 l 1
 36 12 l 1
36 24 m 1
 47 24 l 1
 47 13 l 1
 36 13 l 1
 36 24 l 1
36 36 m 1
 47 36 l 1
 47 25 l 1
 36 25 l 1
 36 36 l 1
36 48 m 1
 47 48 l 1
 47 37 l 1
 36 37 l 1
 36 48 l 1
36 60 m 1
 47 60 l 1
 47 49 l 1
 36 49 l 1
 36 60 l 1
36 72 m 1
 47 72 l 1
 47 61 l 1
 36 61 l 1
 36 72 l 1
36 84 m 1
 47 84 l 1
 47 73 l 1
 36 73 l 1
 36 84 l 1
36 96 m 1
 47 96 l 1
 47 85 l 1
 36 85 l 1
 36 96 l 1
36 108 m 1
 47 108 l 1
 47 97 l 1
 36 97 l 1
 36 108 l 1
24 36 m 1
 35 36 l 1
 35 25 l 1
 24 25 l 1
 24 36 l 1
24 84 m 1
 35 84 l 1
 35 73 l 1
 24 73 l 1
 24 84 l 1
24 96 m 1
 35 96 l 1
 35 85 l 1
 24 85 l 1
 24 96 l 1
12 36 m 1
 23 36 l 1
 23 25 l 1
 12 25 l 1
 12 36 l 1
12 60 m 1
 23 60 l 1
 23 49 l 1
 12 49 l 1
 12 60 l 1
12 72 m 1
 23 72 l 1
 23 61 l 1
 12 61 l 1
 12 72 l 1
0 36 m 1
 11 36 l 1
 11 25 l 1
 0 25 l 1
 0 36 l 1
0 48 m 1
 11 48 l 1
 11 37 l 1
 0 37 l 1
 0 48 l 1
EndSplineSet
Validated: 1
EndChar

StartChar: six
Encoding: 54 54 9
Width: 72
Flags: HW
LayerCount: 2
Fore
SplineSet
48 24 m 1
 59 24 l 1
 59 13 l 1
 48 13 l 1
 48 24 l 1
48 36 m 1
 59 36 l 1
 59 25 l 1
 48 25 l 1
 48 36 l 1
48 48 m 1
 59 48 l 1
 59 37 l 1
 48 37 l 1
 48 48 l 1
36 12 m 1
 47 12 l 1
 47 1 l 1
 36 1 l 1
 36 12 l 1
36 60 m 1
 47 60 l 1
 47 49 l 1
 36 49 l 1
 36 60 l 1
36 108 m 1
 47 108 l 1
 47 97 l 1
 36 97 l 1
 36 108 l 1
24 12 m 1
 35 12 l 1
 35 1 l 1
 24 1 l 1
 24 12 l 1
24 60 m 1
 35 60 l 1
 35 49 l 1
 24 49 l 1
 24 60 l 1
24 108 m 1
 35 108 l 1
 35 97 l 1
 24 97 l 1
 24 108 l 1
12 12 m 1
 23 12 l 1
 23 1 l 1
 12 1 l 1
 12 12 l 1
12 60 m 1
 23 60 l 1
 23 49 l 1
 12 49 l 1
 12 60 l 1
12 96 m 1
 23 96 l 1
 23 85 l 1
 12 85 l 1
 12 96 l 1
0 24 m 1
 11 24 l 1
 11 13 l 1
 0 13 l 1
 0 24 l 1
0 36 m 1
 11 36 l 1
 11 25 l 1
 0 25 l 1
 0 36 l 1
0 48 m 1
 11 48 l 1
 11 37 l 1
 0 37 l 1
 0 48 l 1
0 60 m 1
 11 60 l 1
 11 49 l 1
 0 49 l 1
 0 60 l 1
0 72 m 1
 11 72 l 1
 11 61 l 1
 0 61 l 1
 0 72 l 1
0 84 m 1
 11 84 l 1
 11 73 l 1
 0 73 l 1
 0 84 l 1
EndSplineSet
Validated: 1
EndChar

StartChar: seven
Encoding: 55 55 10
Width: 72
Flags: HW
LayerCount: 2
Fore
SplineSet
48 84 m 1
 59 84 l 1
 59 73 l 1
 48 73 l 1
 48 84 l 1
48 96 m 1
 59 96 l 1
 59 85 l 1
 48 85 l 1
 48 96 l 1
48 108 m 1
 59 108 l 1
 59 97 l 1
 48 97 l 1
 48 108 l 1
36 48 m 1
 47 48 l 1
 47 37 l 1
 36 37 l 1
 36 48 l 1
36 60 m 1
 47 60 l 1
 47 49 l 1
 36 49 l 1
 36 60 l 1
36 72 m 1
 47 72 l 1
 47 61 l 1
 36 61 l 1
 36 72 l 1
36 108 m 1
 47 108 l 1
 47 97 l 1
 36 97 l 1
 36 108 l 1
24 12 m 1
 35 12 l 1
 35 1 l 1
 24 1 l 1
 24 12 l 1
24 24 m 1
 35 24 l 1
 35 13 l 1
 24 13 l 1
 24 24 l 1
24 36 m 1
 35 36 l 1
 35 25 l 1
 24 25 l 1
 24 36 l 1
24 108 m 1
 35 108 l 1
 35 97 l 1
 24 97 l 1
 24 108 l 1
12 108 m 1
 23 108 l 1
 23 97 l 1
 12 97 l 1
 12 108 l 1
0 96 m 1
 11 96 l 1
 11 85 l 1
 0 85 l 1
 0 96 l 1
0 108 m 1
 11 108 l 1
 11 97 l 1
 0 97 l 1
 0 108 l 1
EndSplineSet
Validated: 1
EndChar

StartChar: eight
Encoding: 56 56 11
Width: 72
Flags: HW
LayerCount: 2
Fore
SplineSet
48 24 m 1
 59 24 l 1
 59 13 l 1
 48 13 l 1
 48 24 l 1
48 36 m 1
 59 36 l 1
 59 25 l 1
 48 25 l 1
 48 36 l 1
48 48 m 1
 59 48 l 1
 59 37 l 1
 48 37 l 1
 48 48 l 1
48 72 m 1
 59 72 l 1
 59 61 l 1
 48 61 l 1
 48 72 l 1
48 84 m 1
 59 84 l 1
 59 73 l 1
 48 73 l 1
 48 84 l 1
48 96 m 1
 59 96 l 1
 59 85 l 1
 48 85 l 1
 48 96 l 1
36 12 m 1
 47 12 l 1
 47 1 l 1
 36 1 l 1
 36 12 l 1
36 60 m 1
 47 60 l 1
 47 49 l 1
 36 49 l 1
 36 60 l 1
36 108 m 1
 47 108 l 1
 47 97 l 1
 36 97 l 1
 36 108 l 1
24 12 m 1
 35 12 l 1
 35 1 l 1
 24 1 l 1
 24 12 l 1
24 60 m 1
 35 60 l 1
 35 49 l 1
 24 49 l 1
 24 60 l 1
24 108 m 1
 35 108 l 1
 35 97 l 1
 24 97 l 1
 24 108 l 1
12 12 m 1
 23 12 l 1
 23 1 l 1
 12 1 l 1
 12 12 l 1
12 60 m 1
 23 60 l 1
 23 49 l 1
 12 49 l 1
 12 60 l 1
12 108 m 1
 23 108 l 1
 23 97 l 1
 12 97 l 1
 12 108 l 1
0 24 m 1
 11 24 l 1
 11 13 l 1
 0 13 l 1
 0 24 l 1
0 36 m 1
 11 36 l 1
 11 25 l 1
 0 25 l 1
 0 36 l 1
0 48 m 1
 11 48 l 1
 11 37 l 1
 0 37 l 1
 0 48 l 1
0 72 m 1
 11 72 l 1
 11 61 l 1
 0 61 l 1
 0 72 l 1
0 84 m 1
 11 84 l 1
 11 73 l 1
 0 73 l 1
 0 84 l 1
0 96 m 1
 11 96 l 1
 11 85 l 1
 0 85 l 1
 0 96 l 1
EndSplineSet
Validated: 1
EndChar

StartChar: nine
Encoding: 57 57 12
Width: 72
Flags: HW
LayerCount: 2
Fore
SplineSet
48 36 m 1
 59 36 l 1
 59 25 l 1
 48 25 l 1
 48 36 l 1
48 48 m 1
 59 48 l 1
 59 37 l 1
 48 37 l 1
 48 48 l 1
48 60 m 1
 59 60 l 1
 59 49 l 1
 48 49 l 1
 48 60 l 1
48 72 m 1
 59 72 l 1
 59 61 l 1
 48 61 l 1
 48 72 l 1
48 84 m 1
 59 84 l 1
 59 73 l 1
 48 73 l 1
 48 84 l 1
48 96 m 1
 59 96 l 1
 59 85 l 1
 48 85 l 1
 48 96 l 1
36 24 m 1
 47 24 l 1
 47 13 l 1
 36 13 l 1
 36 24 l 1
36 60 m 1
 47 60 l 1
 47 49 l 1
 36 49 l 1
 36 60 l 1
36 108 m 1
 47 108 l 1
 47 97 l 1
 36 97 l 1
 36 108 l 1
24 12 m 1
 35 12 l 1
 35 1 l 1
 24 1 l 1
 24 12 l 1
24 60 m 1
 35 60 l 1
 35 49 l 1
 24 49 l 1
 24 60 l 1
24 108 m 1
 35 108 l 1
 35 97 l 1
 24 97 l 1
 24 108 l 1
12 12 m 1
 23 12 l 1
 23 1 l 1
 12 1 l 1
 12 12 l 1
12 60 m 1
 23 60 l 1
 23 49 l 1
 12 49 l 1
 12 60 l 1
12 108 m 1
 23 108 l 1
 23 97 l 1
 12 97 l 1
 12 108 l 1
0 72 m 1
 11 72 l 1
 11 61 l 1
 0 61 l 1
 0 72 l 1
0 84 m 1
 11 84 l 1
 11 73 l 1
 0 73 l 1
 0 84 l 1
0 96 m 1
 11 96 l 1
 11 85 l 1
 0 85 l 1
 0 96 l 1
EndSplineSet
Validated: 1
EndChar

StartChar: comma
Encoding: 44 44 13
Width: 72
Flags: HW
LayerCount: 2
Fore
SplineSet
24 24 m 1
 35 24 l 1
 35 13 l 1
 24 13 l 1
 24 24 l 1
24 36 m 1
 35 36 l 1
 35 25 l 1
 24 25 l 1
 24 36 l 1
24 48 m 1
 35 48 l 1
 35 37 l 1
 24 37 l 1
 24 48 l 1
12 12 m 1
 23 12 l 1
 23 1 l 1
 12 1 l 1
 12 12 l 1
12 36 m 1
 23 36 l 1
 23 25 l 1
 12 25 l 1
 12 36 l 1
12 48 m 1
 23 48 l 1
 23 37 l 1
 12 37 l 1
 12 48 l 1
EndSplineSet
Validated: 1
EndChar

StartChar: period
Encoding: 46 46 14
Width: 72
Flags: HW
LayerCount: 2
Fore
SplineSet
24 12 m 1
 35 12 l 1
 35 1 l 1
 24 1 l 1
 24 12 l 1
24 24 m 1
 35 24 l 1
 35 13 l 1
 24 13 l 1
 24 24 l 1
12 12 m 1
 23 12 l 1
 23 1 l 1
 12 1 l 1
 12 12 l 1
12 24 m 1
 23 24 l 1
 23 13 l 1
 12 13 l 1
 12 24 l 1
EndSplineSet
EndChar

StartChar: hyphen
Encoding: 45 45 15
Width: 72
Flags: HW
LayerCount: 2
Fore
SplineSet
48 60 m 1
 59 60 l 1
 59 49 l 1
 48 49 l 1
 48 60 l 1
36 60 m 1
 47 60 l 1
 47 49 l 1
 36 49 l 1
 36 60 l 1
24 60 m 1
 35 60 l 1
 35 49 l 1
 24 49 l 1
 24 60 l 1
12 60 m 1
 23 60 l 1
 23 49 l 1
 12 49 l 1
 12 60 l 1
0 60 m 1
 11 60 l 1
 11 49 l 1
 0 49 l 1
 0 60 l 1
EndSplineSet
Validated: 1
EndChar

StartChar: divide
Encoding: 247 247 16
Width: 72
Flags: HW
LayerCount: 2
Fore
SplineSet
48 60 m 1
 59 60 l 1
 59 49 l 1
 48 49 l 1
 48 60 l 1
36 60 m 1
 47 60 l 1
 47 49 l 1
 36 49 l 1
 36 60 l 1
24 36 m 1
 35 36 l 1
 35 25 l 1
 24 25 l 1
 24 36 l 1
24 60 m 1
 35 60 l 1
 35 49 l 1
 24 49 l 1
 24 60 l 1
24 84 m 1
 35 84 l 1
 35 73 l 1
 24 73 l 1
 24 84 l 1
12 60 m 1
 23 60 l 1
 23 49 l 1
 12 49 l 1
 12 60 l 1
0 60 m 1
 11 60 l 1
 11 49 l 1
 0 49 l 1
 0 60 l 1
EndSplineSet
Validated: 1
EndChar

StartChar: uni00AD
Encoding: 173 173 17
Width: 72
Flags: HW
LayerCount: 2
Fore
SplineSet
48 60 m 1
 59 60 l 1
 59 49 l 1
 48 49 l 1
 48 60 l 1
36 60 m 1
 47 60 l 1
 47 49 l 1
 36 49 l 1
 36 60 l 1
24 60 m 1
 35 60 l 1
 35 49 l 1
 24 49 l 1
 24 60 l 1
12 60 m 1
 23 60 l 1
 23 49 l 1
 12 49 l 1
 12 60 l 1
0 60 m 1
 11 60 l 1
 11 49 l 1
 0 49 l 1
 0 60 l 1
EndSplineSet
Validated: 1
EndChar

StartChar: multiply
Encoding: 215 215 18
Width: 72
Flags: HW
LayerCount: 2
Fore
SplineSet
48 36 m 1
 59 36 l 1
 59 25 l 1
 48 25 l 1
 48 36 l 1
48 84 m 1
 59 84 l 1
 59 73 l 1
 48 73 l 1
 48 84 l 1
36 48 m 1
 47 48 l 1
 47 37 l 1
 36 37 l 1
 36 48 l 1
36 72 m 1
 47 72 l 1
 47 61 l 1
 36 61 l 1
 36 72 l 1
24 60 m 1
 35 60 l 1
 35 49 l 1
 24 49 l 1
 24 60 l 1
12 48 m 1
 23 48 l 1
 23 37 l 1
 12 37 l 1
 12 48 l 1
12 72 m 1
 23 72 l 1
 23 61 l 1
 12 61 l 1
 12 72 l 1
0 36 m 1
 11 36 l 1
 11 25 l 1
 0 25 l 1
 0 36 l 1
0 84 m 1
 11 84 l 1
 11 73 l 1
 0 73 l 1
 0 84 l 1
EndSplineSet
Validated: 1
EndChar

StartChar: uni0000
Encoding: 0 0 19
Width: 108
Flags: HW
LayerCount: 2
Fore
SplineSet
48 12 m 1
 59 12 l 1
 59 1 l 1
 48 1 l 1
 48 12 l 1
48 24 m 1
 59 24 l 1
 59 13 l 1
 48 13 l 1
 48 24 l 1
48 36 m 1
 59 36 l 1
 59 25 l 1
 48 25 l 1
 48 36 l 1
48 48 m 1
 59 48 l 1
 59 37 l 1
 48 37 l 1
 48 48 l 1
48 60 m 1
 59 60 l 1
 59 49 l 1
 48 49 l 1
 48 60 l 1
48 72 m 1
 59 72 l 1
 59 61 l 1
 48 61 l 1
 48 72 l 1
48 84 m 1
 59 84 l 1
 59 73 l 1
 48 73 l 1
 48 84 l 1
48 96 m 1
 59 96 l 1
 59 85 l 1
 48 85 l 1
 48 96 l 1
48 108 m 1
 59 108 l 1
 59 97 l 1
 48 97 l 1
 48 108 l 1
36 12 m 1
 47 12 l 1
 47 1 l 1
 36 1 l 1
 36 12 l 1
36 24 m 1
 47 24 l 1
 47 13 l 1
 36 13 l 1
 36 24 l 1
36 36 m 1
 47 36 l 1
 47 25 l 1
 36 25 l 1
 36 36 l 1
36 48 m 1
 47 48 l 1
 47 37 l 1
 36 37 l 1
 36 48 l 1
36 60 m 1
 47 60 l 1
 47 49 l 1
 36 49 l 1
 36 60 l 1
36 72 m 1
 47 72 l 1
 47 61 l 1
 36 61 l 1
 36 72 l 1
36 84 m 1
 47 84 l 1
 47 73 l 1
 36 73 l 1
 36 84 l 1
36 96 m 1
 47 96 l 1
 47 85 l 1
 36 85 l 1
 36 96 l 1
36 108 m 1
 47 108 l 1
 47 97 l 1
 36 97 l 1
 36 108 l 1
24 12 m 1
 35 12 l 1
 35 1 l 1
 24 1 l 1
 24 12 l 1
24 24 m 1
 35 24 l 1
 35 13 l 1
 24 13 l 1
 24 24 l 1
24 36 m 1
 35 36 l 1
 35 25 l 1
 24 25 l 1
 24 36 l 1
24 48 m 1
 35 48 l 1
 35 37 l 1
 24 37 l 1
 24 48 l 1
24 60 m 1
 35 60 l 1
 35 49 l 1
 24 49 l 1
 24 60 l 1
24 72 m 1
 35 72 l 1
 35 61 l 1
 24 61 l 1
 24 72 l 1
24 84 m 1
 35 84 l 1
 35 73 l 1
 24 73 l 1
 24 84 l 1
24 96 m 1
 35 96 l 1
 35 85 l 1
 24 85 l 1
 24 96 l 1
24 108 m 1
 35 108 l 1
 35 97 l 1
 24 97 l 1
 24 108 l 1
12 12 m 1
 23 12 l 1
 23 1 l 1
 12 1 l 1
 12 12 l 1
12 24 m 1
 23 24 l 1
 23 13 l 1
 12 13 l 1
 12 24 l 1
12 36 m 1
 23 36 l 1
 23 25 l 1
 12 25 l 1
 12 36 l 1
12 48 m 1
 23 48 l 1
 23 37 l 1
 12 37 l 1
 12 48 l 1
12 60 m 1
 23 60 l 1
 23 49 l 1
 12 49 l 1
 12 60 l 1
12 72 m 1
 23 72 l 1
 23 61 l 1
 12 61 l 1
 12 72 l 1
12 84 m 1
 23 84 l 1
 23 73 l 1
 12 73 l 1
 12 84 l 1
12 96 m 1
 23 96 l 1
 23 85 l 1
 12 85 l 1
 12 96 l 1
12 108 m 1
 23 108 l 1
 23 97 l 1
 12 97 l 1
 12 108 l 1
0 12 m 1
 11 12 l 1
 11 1 l 1
 0 1 l 1
 0 12 l 1
0 24 m 1
 11 24 l 1
 11 13 l 1
 0 13 l 1
 0 24 l 1
0 36 m 1
 11 36 l 1
 11 25 l 1
 0 25 l 1
 0 36 l 1
0 48 m 1
 11 48 l 1
 11 37 l 1
 0 37 l 1
 0 48 l 1
0 60 m 1
 11 60 l 1
 11 49 l 1
 0 49 l 1
 0 60 l 1
0 72 m 1
 11 72 l 1
 11 61 l 1
 0 61 l 1
 0 72 l 1
0 84 m 1
 11 84 l 1
 11 73 l 1
 0 73 l 1
 0 84 l 1
0 96 m 1
 11 96 l 1
 11 85 l 1
 0 85 l 1
 0 96 l 1
0 108 m 1
 11 108 l 1
 11 97 l 1
 0 97 l 1
 0 108 l 1
EndSplineSet
Validated: 1
EndChar

StartChar: n
Encoding: 110 110 20
Width: 72
Flags: HW
LayerCount: 2
Fore
SplineSet
48 12 m 1
 59 12 l 1
 59 1 l 1
 48 1 l 1
 48 12 l 1
48 24 m 1
 59 24 l 1
 59 13 l 1
 48 13 l 1
 48 24 l 1
48 36 m 1
 59 36 l 1
 59 25 l 1
 48 25 l 1
 48 36 l 1
48 48 m 1
 59 48 l 1
 59 37 l 1
 48 37 l 1
 48 48 l 1
48 60 m 1
 59 60 l 1
 59 49 l 1
 48 49 l 1
 48 60 l 1
48 72 m 1
 59 72 l 1
 59 61 l 1
 48 61 l 1
 48 72 l 1
36 84 m 1
 47 84 l 1
 47 73 l 1
 36 73 l 1
 36 84 l 1
24 84 m 1
 35 84 l 1
 35 73 l 1
 24 73 l 1
 24 84 l 1
12 72 m 1
 23 72 l 1
 23 61 l 1
 12 61 l 1
 12 72 l 1
0 12 m 1
 11 12 l 1
 11 1 l 1
 0 1 l 1
 0 12 l 1
0 24 m 1
 11 24 l 1
 11 13 l 1
 0 13 l 1
 0 24 l 1
0 36 m 1
 11 36 l 1
 11 25 l 1
 0 25 l 1
 0 36 l 1
0 48 m 1
 11 48 l 1
 11 37 l 1
 0 37 l 1
 0 48 l 1
0 60 m 1
 11 60 l 1
 11 49 l 1
 0 49 l 1
 0 60 l 1
0 72 m 1
 11 72 l 1
 11 61 l 1
 0 61 l 1
 0 72 l 1
0 84 m 1
 11 84 l 1
 11 73 l 1
 0 73 l 1
 0 84 l 1
EndSplineSet
Validated: 1
EndChar

StartChar: s
Encoding: 115 115 21
Width: 72
Flags: HW
LayerCount: 2
Fore
SplineSet
48 24 m 1
 59 24 l 1
 59 13 l 1
 48 13 l 1
 48 24 l 1
48 36 m 1
 59 36 l 1
 59 25 l 1
 48 25 l 1
 48 36 l 1
48 72 m 1
 59 72 l 1
 59 61 l 1
 48 61 l 1
 48 72 l 1
36 12 m 1
 47 12 l 1
 47 1 l 1
 36 1 l 1
 36 12 l 1
36 48 m 1
 47 48 l 1
 47 37 l 1
 36 37 l 1
 36 48 l 1
36 84 m 1
 47 84 l 1
 47 73 l 1
 36 73 l 1
 36 84 l 1
24 12 m 1
 35 12 l 1
 35 1 l 1
 24 1 l 1
 24 12 l 1
24 48 m 1
 35 48 l 1
 35 37 l 1
 24 37 l 1
 24 48 l 1
24 84 m 1
 35 84 l 1
 35 73 l 1
 24 73 l 1
 24 84 l 1
12 12 m 1
 23 12 l 1
 23 1 l 1
 12 1 l 1
 12 12 l 1
12 48 m 1
 23 48 l 1
 23 37 l 1
 12 37 l 1
 12 48 l 1
12 84 m 1
 23 84 l 1
 23 73 l 1
 12 73 l 1
 12 84 l 1
0 24 m 1
 11 24 l 1
 11 13 l 1
 0 13 l 1
 0 24 l 1
0 60 m 1
 11 60 l 1
 11 49 l 1
 0 49 l 1
 0 60 l 1
0 72 m 1
 11 72 l 1
 11 61 l 1
 0 61 l 1
 0 72 l 1
EndSplineSet
Validated: 1
EndChar

StartChar: minus
Encoding: 8722 8722 22
Width: 72
Flags: HW
LayerCount: 2
Fore
SplineSet
48 60 m 1
 59 60 l 1
 59 49 l 1
 48 49 l 1
 48 60 l 1
36 60 m 1
 47 60 l 1
 47 49 l 1
 36 49 l 1
 36 60 l 1
24 60 m 1
 35 60 l 1
 35 49 l 1
 24 49 l 1
 24 60 l 1
12 60 m 1
 23 60 l 1
 23 49 l 1
 12 49 l 1
 12 60 l 1
0 60 m 1
 11 60 l 1
 11 49 l 1
 0 49 l 1
 0 60 l 1
EndSplineSet
Validated: 1
EndChar

StartChar: uni25AF
Encoding: 9647 9647 23
Width: 71
Flags: HW
LayerCount: 2
Fore
SplineSet
48 12 m 1
 59 12 l 1
 59 1 l 1
 48 1 l 1
 48 12 l 1
48 24 m 1
 59 24 l 1
 59 13 l 1
 48 13 l 1
 48 24 l 1
48 36 m 1
 59 36 l 1
 59 25 l 1
 48 25 l 1
 48 36 l 1
48 48 m 1
 59 48 l 1
 59 37 l 1
 48 37 l 1
 48 48 l 1
48 60 m 1
 59 60 l 1
 59 49 l 1
 48 49 l 1
 48 60 l 1
48 72 m 1
 59 72 l 1
 59 61 l 1
 48 61 l 1
 48 72 l 1
48 84 m 1
 59 84 l 1
 59 73 l 1
 48 73 l 1
 48 84 l 1
48 96 m 1
 59 96 l 1
 59 85 l 1
 48 85 l 1
 48 96 l 1
48 108 m 1
 59 108 l 1
 59 97 l 1
 48 97 l 1
 48 108 l 1
36 12 m 1
 47 12 l 1
 47 1 l 1
 36 1 l 1
 36 12 l 1
36 108 m 1
 47 108 l 1
 47 97 l 1
 36 97 l 1
 36 108 l 1
24 12 m 1
 35 12 l 1
 35 1 l 1
 24 1 l 1
 24 12 l 1
24 108 m 1
 35 108 l 1
 35 97 l 1
 24 97 l 1
 24 108 l 1
12 12 m 1
 23 12 l 1
 23 1 l 1
 12 1 l 1
 12 12 l 1
12 108 m 1
 23 108 l 1
 23 97 l 1
 12 97 l 1
 12 108 l 1
0 12 m 1
 11 12 l 1
 11 1 l 1
 0 1 l 1
 0 12 l 1
0 24 m 1
 11 24 l 1
 11 13 l 1
 0 13 l 1
 0 24 l 1
0 36 m 1
 11 36 l 1
 11 25 l 1
 0 25 l 1
 0 36 l 1
0 48 m 1
 11 48 l 1
 11 37 l 1
 0 37 l 1
 0 48 l 1
0 60 m 1
 11 60 l 1
 11 49 l 1
 0 49 l 1
 0 60 l 1
0 72 m 1
 11 72 l 1
 11 61 l 1
 0 61 l 1
 0 72 l 1
0 84 m 1
 11 84 l 1
 11 73 l 1
 0 73 l 1
 0 84 l 1
0 96 m 1
 11 96 l 1
 11 85 l 1
 0 85 l 1
 0 96 l 1
0 108 m 1
 11 108 l 1
 11 97 l 1
 0 97 l 1
 0 108 l 1
EndSplineSet
Validated: 1
EndChar

StartChar: z
Encoding: 122 122 24
Width: 72
Flags: HW
LayerCount: 2
Fore
SplineSet
48 12 m 1
 59 12 l 1
 59 1 l 1
 48 1 l 1
 48 12 l 1
48 24 m 1
 59 24 l 1
 59 13 l 1
 48 13 l 1
 48 24 l 1
48 36 m 1
 59 36 l 1
 59 25 l 1
 48 25 l 1
 48 36 l 1
48 48 m 1
 59 48 l 1
 59 37 l 1
 48 37 l 1
 48 48 l 1
48 60 m 1
 59 60 l 1
 59 49 l 1
 48 49 l 1
 48 60 l 1
48 72 m 1
 59 72 l 1
 59 61 l 1
 48 61 l 1
 48 72 l 1
48 84 m 1
 59 84 l 1
 59 73 l 1
 48 73 l 1
 48 84 l 1
48 96 m 1
 59 96 l 1
 59 85 l 1
 48 85 l 1
 48 96 l 1
48 108 m 1
 59 108 l 1
 59 97 l 1
 48 97 l 1
 48 108 l 1
36 12 m 1
 47 12 l 1
 47 1 l 1
 36 1 l 1
 36 12 l 1
36 108 m 1
 47 108 l 1
 47 97 l 1
 36 97 l 1
 36 108 l 1
24 12 m 1
 35 12 l 1
 35 1 l 1
 24 1 l 1
 24 12 l 1
24 108 m 1
 35 108 l 1
 35 97 l 1
 24 97 l 1
 24 108 l 1
12 12 m 1
 23 12 l 1
 23 1 l 1
 12 1 l 1
 12 12 l 1
12 108 m 1
 23 108 l 1
 23 97 l 1
 12 97 l 1
 12 108 l 1
0 12 m 1
 11 12 l 1
 11 1 l 1
 0 1 l 1
 0 12 l 1
0 24 m 1
 11 24 l 1
 11 13 l 1
 0 13 l 1
 0 24 l 1
0 36 m 1
 11 36 l 1
 11 25 l 1
 0 25 l 1
 0 36 l 1
0 48 m 1
 11 48 l 1
 11 37 l 1
 0 37 l 1
 0 48 l 1
0 60 m 1
 11 60 l 1
 11 49 l 1
 0 49 l 1
 0 60 l 1
0 72 m 1
 11 72 l 1
 11 61 l 1
 0 61 l 1
 0 72 l 1
0 84 m 1
 11 84 l 1
 11 73 l 1
 0 73 l 1
 0 84 l 1
0 96 m 1
 11 96 l 1
 11 85 l 1
 0 85 l 1
 0 96 l 1
0 108 m 1
 11 108 l 1
 11 97 l 1
 0 97 l 1
 0 108 l 1
EndSplineSet
Validated: 1
EndChar

StartChar: parenleft
Encoding: 40 40 25
Width: 72
Flags: HW
LayerCount: 2
Fore
SplineSet
36 12 m 1
 47 12 l 1
 47 1 l 1
 36 1 l 1
 36 12 l 1
36 108 m 1
 47 108 l 1
 47 97 l 1
 36 97 l 1
 36 108 l 1
24 24 m 1
 35 24 l 1
 35 13 l 1
 24 13 l 1
 24 24 l 1
24 96 m 1
 35 96 l 1
 35 85 l 1
 24 85 l 1
 24 96 l 1
12 36 m 1
 23 36 l 1
 23 25 l 1
 12 25 l 1
 12 36 l 1
12 48 m 1
 23 48 l 1
 23 37 l 1
 12 37 l 1
 12 48 l 1
12 60 m 1
 23 60 l 1
 23 49 l 1
 12 49 l 1
 12 60 l 1
12 72 m 1
 23 72 l 1
 23 61 l 1
 12 61 l 1
 12 72 l 1
12 84 m 1
 23 84 l 1
 23 73 l 1
 12 73 l 1
 12 84 l 1
EndSplineSet
Validated: 1
EndChar

StartChar: parenright
Encoding: 41 41 26
Width: 72
Flags: HW
LayerCount: 2
Fore
SplineSet
36 36 m 1
 47 36 l 1
 47 25 l 1
 36 25 l 1
 36 36 l 1
36 48 m 1
 47 48 l 1
 47 37 l 1
 36 37 l 1
 36 48 l 1
36 60 m 1
 47 60 l 1
 47 49 l 1
 36 49 l 1
 36 60 l 1
36 72 m 1
 47 72 l 1
 47 61 l 1
 36 61 l 1
 36 72 l 1
36 84 m 1
 47 84 l 1
 47 73 l 1
 36 73 l 1
 36 84 l 1
24 24 m 1
 35 24 l 1
 35 13 l 1
 24 13 l 1
 24 24 l 1
24 96 m 1
 35 96 l 1
 35 85 l 1
 24 85 l 1
 24 96 l 1
12 12 m 1
 23 12 l 1
 23 1 l 1
 12 1 l 1
 12 12 l 1
12 108 m 1
 23 108 l 1
 23 97 l 1
 12 97 l 1
 12 108 l 1
EndSplineSet
Validated: 1
EndChar

StartChar: uniE000
Encoding: 57344 57344 27
Width: 0
Flags: HW
LayerCount: 2
Fore
SplineSet
0 12 m 1
 11 12 l 1
 11 1 l 1
 0 1 l 1
 0 12 l 1
0 24 m 1
 11 24 l 1
 11 13 l 1
 0 13 l 1
 0 24 l 1
0 36 m 1
 11 36 l 1
 11 25 l 1
 0 25 l 1
 0 36 l 1
0 48 m 1
 11 48 l 1
 11 37 l 1
 0 37 l 1
 0 48 l 1
0 60 m 1
 11 60 l 1
 11 49 l 1
 0 49 l 1
 0 60 l 1
0 72 m 1
 11 72 l 1
 11 61 l 1
 0 61 l 1
 0 72 l 1
0 84 m 1
 11 84 l 1
 11 73 l 1
 0 73 l 1
 0 84 l 1
0 96 m 1
 11 96 l 1
 11 85 l 1
 0 85 l 1
 0 96 l 1
0 108 m 1
 11 108 l 1
 11 97 l 1
 0 97 l 1
 0 108 l 1
-12 12 m 1
 -1 12 l 1
 -1 1 l 1
 -12 1 l 1
 -12 12 l 1
-12 24 m 1
 -1 24 l 1
 -1 13 l 1
 -12 13 l 1
 -12 24 l 1
-12 36 m 1
 -1 36 l 1
 -1 25 l 1
 -12 25 l 1
 -12 36 l 1
-12 48 m 1
 -1 48 l 1
 -1 37 l 1
 -12 37 l 1
 -12 48 l 1
-12 60 m 1
 -1 60 l 1
 -1 49 l 1
 -12 49 l 1
 -12 60 l 1
-12 72 m 1
 -1 72 l 1
 -1 61 l 1
 -12 61 l 1
 -12 72 l 1
-12 84 m 1
 -1 84 l 1
 -1 73 l 1
 -12 73 l 1
 -12 84 l 1
-12 96 m 1
 -1 96 l 1
 -1 85 l 1
 -12 85 l 1
 -12 96 l 1
-12 108 m 1
 -1 108 l 1
 -1 97 l 1
 -12 97 l 1
 -12 108 l 1
EndSplineSet
Validated: 1
EndChar

StartChar: l
Encoding: 108 108 28
Width: 72
Flags: HW
LayerCount: 2
Fore
SplineSet
36 12 m 1
 47 12 l 1
 47 1 l 1
 36 1 l 1
 36 12 l 1
24 12 m 1
 35 12 l 1
 35 1 l 1
 24 1 l 1
 24 12 l 1
24 24 m 1
 35 24 l 1
 35 13 l 1
 24 13 l 1
 24 24 l 1
24 36 m 1
 35 36 l 1
 35 25 l 1
 24 25 l 1
 24 36 l 1
24 48 m 1
 35 48 l 1
 35 37 l 1
 24 37 l 1
 24 48 l 1
24 60 m 1
 35 60 l 1
 35 49 l 1
 24 49 l 1
 24 60 l 1
24 72 m 1
 35 72 l 1
 35 61 l 1
 24 61 l 1
 24 72 l 1
24 84 m 1
 35 84 l 1
 35 73 l 1
 24 73 l 1
 24 84 l 1
24 96 m 1
 35 96 l 1
 35 85 l 1
 24 85 l 1
 24 96 l 1
24 108 m 1
 35 108 l 1
 35 97 l 1
 24 97 l 1
 24 108 l 1
12 12 m 1
 23 12 l 1
 23 1 l 1
 12 1 l 1
 12 12 l 1
12 108 m 1
 23 108 l 1
 23 97 l 1
 12 97 l 1
 12 108 l 1
EndSplineSet
EndChar

StartChar: o
Encoding: 111 111 29
Width: 72
Flags: HW
LayerCount: 2
Fore
SplineSet
48 24 m 1
 59 24 l 1
 59 13 l 1
 48 13 l 1
 48 24 l 1
48 36 m 1
 59 36 l 1
 59 25 l 1
 48 25 l 1
 48 36 l 1
48 48 m 1
 59 48 l 1
 59 37 l 1
 48 37 l 1
 48 48 l 1
48 60 m 1
 59 60 l 1
 59 49 l 1
 48 49 l 1
 48 60 l 1
48 72 m 1
 59 72 l 1
 59 61 l 1
 48 61 l 1
 48 72 l 1
36 12 m 1
 47 12 l 1
 47 1 l 1
 36 1 l 1
 36 12 l 1
36 84 m 1
 47 84 l 1
 47 73 l 1
 36 73 l 1
 36 84 l 1
24 12 m 1
 35 12 l 1
 35 1 l 1
 24 1 l 1
 24 12 l 1
24 84 m 1
 35 84 l 1
 35 73 l 1
 24 73 l 1
 24 84 l 1
12 12 m 1
 23 12 l 1
 23 1 l 1
 12 1 l 1
 12 12 l 1
12 84 m 1
 23 84 l 1
 23 73 l 1
 12 73 l 1
 12 84 l 1
0 24 m 1
 11 24 l 1
 11 13 l 1
 0 13 l 1
 0 24 l 1
0 36 m 1
 11 36 l 1
 11 25 l 1
 0 25 l 1
 0 36 l 1
0 48 m 1
 11 48 l 1
 11 37 l 1
 0 37 l 1
 0 48 l 1
0 60 m 1
 11 60 l 1
 11 49 l 1
 0 49 l 1
 0 60 l 1
0 72 m 1
 11 72 l 1
 11 61 l 1
 0 61 l 1
 0 72 l 1
EndSplineSet
EndChar

StartChar: g
Encoding: 103 103 30
Width: 72
Flags: HW
LayerCount: 2
Fore
SplineSet
48 24 m 1
 59 24 l 1
 59 13 l 1
 48 13 l 1
 48 24 l 1
48 36 m 1
 59 36 l 1
 59 25 l 1
 48 25 l 1
 48 36 l 1
48 48 m 1
 59 48 l 1
 59 37 l 1
 48 37 l 1
 48 48 l 1
48 60 m 1
 59 60 l 1
 59 49 l 1
 48 49 l 1
 48 60 l 1
48 72 m 1
 59 72 l 1
 59 61 l 1
 48 61 l 1
 48 72 l 1
48 84 m 1
 59 84 l 1
 59 73 l 1
 48 73 l 1
 48 84 l 1
36 12 m 1
 47 12 l 1
 47 1 l 1
 36 1 l 1
 36 12 l 1
36 36 m 1
 47 36 l 1
 47 25 l 1
 36 25 l 1
 36 36 l 1
36 84 m 1
 47 84 l 1
 47 73 l 1
 36 73 l 1
 36 84 l 1
24 12 m 1
 35 12 l 1
 35 1 l 1
 24 1 l 1
 24 12 l 1
24 36 m 1
 35 36 l 1
 35 25 l 1
 24 25 l 1
 24 36 l 1
24 84 m 1
 35 84 l 1
 35 73 l 1
 24 73 l 1
 24 84 l 1
12 12 m 1
 23 12 l 1
 23 1 l 1
 12 1 l 1
 12 12 l 1
12 36 m 1
 23 36 l 1
 23 25 l 1
 12 25 l 1
 12 36 l 1
12 84 m 1
 23 84 l 1
 23 73 l 1
 12 73 l 1
 12 84 l 1
0 48 m 1
 11 48 l 1
 11 37 l 1
 0 37 l 1
 0 48 l 1
0 60 m 1
 11 60 l 1
 11 49 l 1
 0 49 l 1
 0 60 l 1
0 72 m 1
 11 72 l 1
 11 61 l 1
 0 61 l 1
 0 72 l 1
EndSplineSet
EndChar

StartChar: i
Encoding: 105 105 31
Width: 72
Flags: HW
LayerCount: 2
Fore
SplineSet
36 12 m 1
 47 12 l 1
 47 1 l 1
 36 1 l 1
 36 12 l 1
24 12 m 1
 35 12 l 1
 35 1 l 1
 24 1 l 1
 24 12 l 1
24 24 m 1
 35 24 l 1
 35 13 l 1
 24 13 l 1
 24 24 l 1
24 36 m 1
 35 36 l 1
 35 25 l 1
 24 25 l 1
 24 36 l 1
24 48 m 1
 35 48 l 1
 35 37 l 1
 24 37 l 1
 24 48 l 1
24 60 m 1
 35 60 l 1
 35 49 l 1
 24 49 l 1
 24 60 l 1
24 72 m 1
 35 72 l 1
 35 61 l 1
 24 61 l 1
 24 72 l 1
24 84 m 1
 35 84 l 1
 35 73 l 1
 24 73 l 1
 24 84 l 1
24 108 m 1
 35 108 l 1
 35 97 l 1
 24 97 l 1
 24 108 l 1
12 12 m 1
 23 12 l 1
 23 1 l 1
 12 1 l 1
 12 12 l 1
12 84 m 1
 23 84 l 1
 23 73 l 1
 12 73 l 1
 12 84 l 1
EndSplineSet
EndChar

StartChar: c
Encoding: 99 99 32
Width: 72
Flags: HW
LayerCount: 2
Fore
SplineSet
48 24 m 1
 59 24 l 1
 59 13 l 1
 48 13 l 1
 48 24 l 1
48 72 m 1
 59 72 l 1
 59 61 l 1
 48 61 l 1
 48 72 l 1
36 12 m 1
 47 12 l 1
 47 1 l 1
 36 1 l 1
 36 12 l 1
36 84 m 1
 47 84 l 1
 47 73 l 1
 36 73 l 1
 36 84 l 1
24 12 m 1
 35 12 l 1
 35 1 l 1
 24 1 l 1
 24 12 l 1
24 84 m 1
 35 84 l 1
 35 73 l 1
 24 73 l 1
 24 84 l 1
12 12 m 1
 23 12 l 1
 23 1 l 1
 12 1 l 1
 12 12 l 1
12 84 m 1
 23 84 l 1
 23 73 l 1
 12 73 l 1
 12 84 l 1
0 24 m 1
 11 24 l 1
 11 13 l 1
 0 13 l 1
 0 24 l 1
0 36 m 1
 11 36 l 1
 11 25 l 1
 0 25 l 1
 0 36 l 1
0 48 m 1
 11 48 l 1
 11 37 l 1
 0 37 l 1
 0 48 l 1
0 60 m 1
 11 60 l 1
 11 49 l 1
 0 49 l 1
 0 60 l 1
0 72 m 1
 11 72 l 1
 11 61 l 1
 0 61 l 1
 0 72 l 1
EndSplineSet
EndChar

StartChar: t
Encoding: 116 116 33
Width: 72
Flags: HW
LayerCount: 2
Fore
SplineSet
48 24 m 1
 59 24 l 1
 59 13 l 1
 48 13 l 1
 48 24 l 1
36 12 m 1
 47 12 l 1
 47 1 l 1
 36 1 l 1
 36 12 l 1
36 84 m 1
 47 84 l 1
 47 73 l 1
 36 73 l 1
 36 84 l 1
24 12 m 1
 35 12 l 1
 35 1 l 1
 24 1 l 1
 24 12 l 1
24 84 m 1
 35 84 l 1
 35 73 l 1
 24 73 l 1
 24 84 l 1
12 24 m 1
 23 24 l 1
 23 13 l 1
 12 13 l 1
 12 24 l 1
12 36 m 1
 23 36 l 1
 23 25 l 1
 12 25 l 1
 12 36 l 1
12 48 m 1
 23 48 l 1
 23 37 l 1
 12 37 l 1
 12 48 l 1
12 60 m 1
 23 60 l 1
 23 49 l 1
 12 49 l 1
 12 60 l 1
12 72 m 1
 23 72 l 1
 23 61 l 1
 12 61 l 1
 12 72 l 1
12 84 m 1
 23 84 l 1
 23 73 l 1
 12 73 l 1
 12 84 l 1
12 96 m 1
 23 96 l 1
 23 85 l 1
 12 85 l 1
 12 96 l 1
12 108 m 1
 23 108 l 1
 23 97 l 1
 12 97 l 1
 12 108 l 1
0 84 m 1
 11 84 l 1
 11 73 l 1
 0 73 l 1
 0 84 l 1
EndSplineSet
EndChar

StartChar: a
Encoding: 97 97 34
Width: 72
Flags: HW
LayerCount: 2
Fore
SplineSet
48 12 m 1
 59 12 l 1
 59 1 l 1
 48 1 l 1
 48 12 l 1
48 24 m 1
 59 24 l 1
 59 13 l 1
 48 13 l 1
 48 24 l 1
48 36 m 1
 59 36 l 1
 59 25 l 1
 48 25 l 1
 48 36 l 1
48 48 m 1
 59 48 l 1
 59 37 l 1
 48 37 l 1
 48 48 l 1
48 60 m 1
 59 60 l 1
 59 49 l 1
 48 49 l 1
 48 60 l 1
48 72 m 1
 59 72 l 1
 59 61 l 1
 48 61 l 1
 48 72 l 1
36 24 m 1
 47 24 l 1
 47 13 l 1
 36 13 l 1
 36 24 l 1
36 60 m 1
 47 60 l 1
 47 49 l 1
 36 49 l 1
 36 60 l 1
36 84 m 1
 47 84 l 1
 47 73 l 1
 36 73 l 1
 36 84 l 1
24 12 m 1
 35 12 l 1
 35 1 l 1
 24 1 l 1
 24 12 l 1
24 60 m 1
 35 60 l 1
 35 49 l 1
 24 49 l 1
 24 60 l 1
24 84 m 1
 35 84 l 1
 35 73 l 1
 24 73 l 1
 24 84 l 1
12 12 m 1
 23 12 l 1
 23 1 l 1
 12 1 l 1
 12 12 l 1
12 48 m 1
 23 48 l 1
 23 37 l 1
 12 37 l 1
 12 48 l 1
12 84 m 1
 23 84 l 1
 23 73 l 1
 12 73 l 1
 12 84 l 1
0 24 m 1
 11 24 l 1
 11 13 l 1
 0 13 l 1
 0 24 l 1
0 36 m 1
 11 36 l 1
 11 25 l 1
 0 25 l 1
 0 36 l 1
0 72 m 1
 11 72 l 1
 11 61 l 1
 0 61 l 1
 0 72 l 1
EndSplineSet
EndChar

StartChar: radical
Encoding: 8730 8730 35
Width: 60
Flags: HW
LayerCount: 2
Fore
SplineSet
48 132 m 1
 59 132 l 1
 59 121 l 1
 48 121 l 1
 48 132 l 1
36 120 m 1
 47 120 l 1
 47 109 l 1
 36 109 l 1
 36 120 l 1
36 132 m 1
 47 132 l 1
 47 121 l 1
 36 121 l 1
 36 132 l 1
36 84 m 1
 47 84 l 1
 47 73 l 1
 36 73 l 1
 36 84 l 1
36 96 m 1
 47 96 l 1
 47 85 l 1
 36 85 l 1
 36 96 l 1
36 108 m 1
 47 108 l 1
 47 97 l 1
 36 97 l 1
 36 108 l 1
24 12 m 1
 35 12 l 1
 35 1 l 1
 24 1 l 1
 24 12 l 1
24 24 m 1
 35 24 l 1
 35 13 l 1
 24 13 l 1
 24 24 l 1
24 36 m 1
 35 36 l 1
 35 25 l 1
 24 25 l 1
 24 36 l 1
24 48 m 1
 35 48 l 1
 35 37 l 1
 24 37 l 1
 24 48 l 1
24 60 m 1
 35 60 l 1
 35 49 l 1
 24 49 l 1
 24 60 l 1
24 72 m 1
 35 72 l 1
 35 61 l 1
 24 61 l 1
 24 72 l 1
12 24 m 1
 23 24 l 1
 23 13 l 1
 12 13 l 1
 12 24 l 1
0 36 m 1
 11 36 l 1
 11 25 l 1
 0 25 l 1
 0 36 l 1
EndSplineSet
EndChar

StartChar: f
Encoding: 102 102 36
Width: 72
Flags: HW
LayerCount: 2
Fore
SplineSet
36 72 m 1
 47 72 l 1
 47 61 l 1
 36 61 l 1
 36 72 l 1
24 48 m 1
 35 48 l 1
 35 37 l 1
 24 37 l 1
 24 48 l 1
24 72 m 1
 35 72 l 1
 35 61 l 1
 24 61 l 1
 24 72 l 1
12 12 m 1
 23 12 l 1
 23 1 l 1
 12 1 l 1
 12 12 l 1
12 24 m 1
 23 24 l 1
 23 13 l 1
 12 13 l 1
 12 24 l 1
12 36 m 1
 23 36 l 1
 23 25 l 1
 12 25 l 1
 12 36 l 1
12 48 m 1
 23 48 l 1
 23 37 l 1
 12 37 l 1
 12 48 l 1
12 60 m 1
 23 60 l 1
 23 49 l 1
 12 49 l 1
 12 60 l 1
0 48 m 1
 11 48 l 1
 11 37 l 1
 0 37 l 1
 0 48 l 1
EndSplineSet
EndChar

StartChar: h
Encoding: 104 104 37
Width: 72
Flags: HW
LayerCount: 2
Fore
SplineSet
48 12 m 1
 59 12 l 1
 59 1 l 1
 48 1 l 1
 48 12 l 1
48 24 m 1
 59 24 l 1
 59 13 l 1
 48 13 l 1
 48 24 l 1
48 36 m 1
 59 36 l 1
 59 25 l 1
 48 25 l 1
 48 36 l 1
36 48 m 1
 47 48 l 1
 47 37 l 1
 36 37 l 1
 36 48 l 1
24 48 m 1
 35 48 l 1
 35 37 l 1
 24 37 l 1
 24 48 l 1
12 36 m 1
 23 36 l 1
 23 25 l 1
 12 25 l 1
 12 36 l 1
0 12 m 1
 11 12 l 1
 11 1 l 1
 0 1 l 1
 0 12 l 1
0 24 m 1
 11 24 l 1
 11 13 l 1
 0 13 l 1
 0 24 l 1
0 36 m 1
 11 36 l 1
 11 25 l 1
 0 25 l 1
 0 36 l 1
0 48 m 1
 11 48 l 1
 11 37 l 1
 0 37 l 1
 0 48 l 1
0 60 m 1
 11 60 l 1
 11 49 l 1
 0 49 l 1
 0 60 l 1
0 72 m 1
 11 72 l 1
 11 61 l 1
 0 61 l 1
 0 72 l 1
EndSplineSet
EndChar

StartChar: r
Encoding: 114 114 38
Width: 72
Flags: HW
LayerCount: 2
Fore
SplineSet
48 48 m 1
 59 48 l 1
 59 37 l 1
 48 37 l 1
 48 48 l 1
36 60 m 1
 47 60 l 1
 47 49 l 1
 36 49 l 1
 36 60 l 1
24 60 m 1
 35 60 l 1
 35 49 l 1
 24 49 l 1
 24 60 l 1
12 48 m 1
 23 48 l 1
 23 37 l 1
 12 37 l 1
 12 48 l 1
0 12 m 1
 11 12 l 1
 11 1 l 1
 0 1 l 1
 0 12 l 1
0 24 m 1
 11 24 l 1
 11 13 l 1
 0 13 l 1
 0 24 l 1
0 36 m 1
 11 36 l 1
 11 25 l 1
 0 25 l 1
 0 36 l 1
0 48 m 1
 11 48 l 1
 11 37 l 1
 0 37 l 1
 0 48 l 1
0 60 m 1
 11 60 l 1
 11 49 l 1
 0 49 l 1
 0 60 l 1
EndSplineSet
EndChar

StartChar: B
Encoding: 66 66 39
Width: 72
Flags: HW
LayerCount: 2
Fore
SplineSet
48 24 m 1
 59 24 l 1
 59 13 l 1
 48 13 l 1
 48 24 l 1
48 36 m 1
 59 36 l 1
 59 25 l 1
 48 25 l 1
 48 36 l 1
48 48 m 1
 59 48 l 1
 59 37 l 1
 48 37 l 1
 48 48 l 1
48 72 m 1
 59 72 l 1
 59 61 l 1
 48 61 l 1
 48 72 l 1
48 84 m 1
 59 84 l 1
 59 73 l 1
 48 73 l 1
 48 84 l 1
48 96 m 1
 59 96 l 1
 59 85 l 1
 48 85 l 1
 48 96 l 1
36 12 m 1
 47 12 l 1
 47 1 l 1
 36 1 l 1
 36 12 l 1
36 60 m 1
 47 60 l 1
 47 49 l 1
 36 49 l 1
 36 60 l 1
36 108 m 1
 47 108 l 1
 47 97 l 1
 36 97 l 1
 36 108 l 1
24 12 m 1
 35 12 l 1
 35 1 l 1
 24 1 l 1
 24 12 l 1
24 60 m 1
 35 60 l 1
 35 49 l 1
 24 49 l 1
 24 60 l 1
24 108 m 1
 35 108 l 1
 35 97 l 1
 24 97 l 1
 24 108 l 1
12 12 m 1
 23 12 l 1
 23 1 l 1
 12 1 l 1
 12 12 l 1
12 60 m 1
 23 60 l 1
 23 49 l 1
 12 49 l 1
 12 60 l 1
12 108 m 1
 23 108 l 1
 23 97 l 1
 12 97 l 1
 12 108 l 1
0 12 m 1
 11 12 l 1
 11 1 l 1
 0 1 l 1
 0 12 l 1
0 24 m 1
 11 24 l 1
 11 13 l 1
 0 13 l 1
 0 24 l 1
0 36 m 1
 11 36 l 1
 11 25 l 1
 0 25 l 1
 0 36 l 1
0 48 m 1
 11 48 l 1
 11 37 l 1
 0 37 l 1
 0 48 l 1
0 60 m 1
 11 60 l 1
 11 49 l 1
 0 49 l 1
 0 60 l 1
0 72 m 1
 11 72 l 1
 11 61 l 1
 0 61 l 1
 0 72 l 1
0 84 m 1
 11 84 l 1
 11 73 l 1
 0 73 l 1
 0 84 l 1
0 96 m 1
 11 96 l 1
 11 85 l 1
 0 85 l 1
 0 96 l 1
0 108 m 1
 11 108 l 1
 11 97 l 1
 0 97 l 1
 0 108 l 1
EndSplineSet
EndChar

StartChar: C
Encoding: 67 67 40
Width: 72
Flags: HW
LayerCount: 2
Fore
SplineSet
48 24 m 1
 59 24 l 1
 59 13 l 1
 48 13 l 1
 48 24 l 1
48 96 m 1
 59 96 l 1
 59 85 l 1
 48 85 l 1
 48 96 l 1
36 12 m 1
 47 12 l 1
 47 1 l 1
 36 1 l 1
 36 12 l 1
36 108 m 1
 47 108 l 1
 47 97 l 1
 36 97 l 1
 36 108 l 1
24 12 m 1
 35 12 l 1
 35 1 l 1
 24 1 l 1
 24 12 l 1
24 108 m 1
 35 108 l 1
 35 97 l 1
 24 97 l 1
 24 108 l 1
12 12 m 1
 23 12 l 1
 23 1 l 1
 12 1 l 1
 12 12 l 1
12 108 m 1
 23 108 l 1
 23 97 l 1
 12 97 l 1
 12 108 l 1
0 24 m 1
 11 24 l 1
 11 13 l 1
 0 13 l 1
 0 24 l 1
0 36 m 1
 11 36 l 1
 11 25 l 1
 0 25 l 1
 0 36 l 1
0 48 m 1
 11 48 l 1
 11 37 l 1
 0 37 l 1
 0 48 l 1
0 60 m 1
 11 60 l 1
 11 49 l 1
 0 49 l 1
 0 60 l 1
0 72 m 1
 11 72 l 1
 11 61 l 1
 0 61 l 1
 0 72 l 1
0 84 m 1
 11 84 l 1
 11 73 l 1
 0 73 l 1
 0 84 l 1
0 96 m 1
 11 96 l 1
 11 85 l 1
 0 85 l 1
 0 96 l 1
EndSplineSet
EndChar

StartChar: D
Encoding: 68 68 41
Width: 72
Flags: HW
LayerCount: 2
Fore
SplineSet
48 36 m 1
 59 36 l 1
 59 25 l 1
 48 25 l 1
 48 36 l 1
48 48 m 1
 59 48 l 1
 59 37 l 1
 48 37 l 1
 48 48 l 1
48 60 m 1
 59 60 l 1
 59 49 l 1
 48 49 l 1
 48 60 l 1
48 72 m 1
 59 72 l 1
 59 61 l 1
 48 61 l 1
 48 72 l 1
48 84 m 1
 59 84 l 1
 59 73 l 1
 48 73 l 1
 48 84 l 1
36 24 m 1
 47 24 l 1
 47 13 l 1
 36 13 l 1
 36 24 l 1
36 96 m 1
 47 96 l 1
 47 85 l 1
 36 85 l 1
 36 96 l 1
24 12 m 1
 35 12 l 1
 35 1 l 1
 24 1 l 1
 24 12 l 1
24 108 m 1
 35 108 l 1
 35 97 l 1
 24 97 l 1
 24 108 l 1
12 12 m 1
 23 12 l 1
 23 1 l 1
 12 1 l 1
 12 12 l 1
12 108 m 1
 23 108 l 1
 23 97 l 1
 12 97 l 1
 12 108 l 1
0 12 m 1
 11 12 l 1
 11 1 l 1
 0 1 l 1
 0 12 l 1
0 24 m 1
 11 24 l 1
 11 13 l 1
 0 13 l 1
 0 24 l 1
0 36 m 1
 11 36 l 1
 11 25 l 1
 0 25 l 1
 0 36 l 1
0 48 m 1
 11 48 l 1
 11 37 l 1
 0 37 l 1
 0 48 l 1
0 60 m 1
 11 60 l 1
 11 49 l 1
 0 49 l 1
 0 60 l 1
0 72 m 1
 11 72 l 1
 11 61 l 1
 0 61 l 1
 0 72 l 1
0 84 m 1
 11 84 l 1
 11 73 l 1
 0 73 l 1
 0 84 l 1
0 96 m 1
 11 96 l 1
 11 85 l 1
 0 85 l 1
 0 96 l 1
0 108 m 1
 11 108 l 1
 11 97 l 1
 0 97 l 1
 0 108 l 1
EndSplineSet
EndChar

StartChar: E
Encoding: 69 69 42
Width: 72
Flags: HW
LayerCount: 2
Fore
SplineSet
48 12 m 1
 59 12 l 1
 59 1 l 1
 48 1 l 1
 48 12 l 1
48 108 m 1
 59 108 l 1
 59 97 l 1
 48 97 l 1
 48 108 l 1
36 12 m 1
 47 12 l 1
 47 1 l 1
 36 1 l 1
 36 12 l 1
36 60 m 1
 47 60 l 1
 47 49 l 1
 36 49 l 1
 36 60 l 1
36 108 m 1
 47 108 l 1
 47 97 l 1
 36 97 l 1
 36 108 l 1
24 12 m 1
 35 12 l 1
 35 1 l 1
 24 1 l 1
 24 12 l 1
24 60 m 1
 35 60 l 1
 35 49 l 1
 24 49 l 1
 24 60 l 1
24 108 m 1
 35 108 l 1
 35 97 l 1
 24 97 l 1
 24 108 l 1
12 12 m 1
 23 12 l 1
 23 1 l 1
 12 1 l 1
 12 12 l 1
12 60 m 1
 23 60 l 1
 23 49 l 1
 12 49 l 1
 12 60 l 1
12 108 m 1
 23 108 l 1
 23 97 l 1
 12 97 l 1
 12 108 l 1
0 12 m 1
 11 12 l 1
 11 1 l 1
 0 1 l 1
 0 12 l 1
0 24 m 1
 11 24 l 1
 11 13 l 1
 0 13 l 1
 0 24 l 1
0 36 m 1
 11 36 l 1
 11 25 l 1
 0 25 l 1
 0 36 l 1
0 48 m 1
 11 48 l 1
 11 37 l 1
 0 37 l 1
 0 48 l 1
0 60 m 1
 11 60 l 1
 11 49 l 1
 0 49 l 1
 0 60 l 1
0 72 m 1
 11 72 l 1
 11 61 l 1
 0 61 l 1
 0 72 l 1
0 84 m 1
 11 84 l 1
 11 73 l 1
 0 73 l 1
 0 84 l 1
0 96 m 1
 11 96 l 1
 11 85 l 1
 0 85 l 1
 0 96 l 1
0 108 m 1
 11 108 l 1
 11 97 l 1
 0 97 l 1
 0 108 l 1
EndSplineSet
EndChar

StartChar: F
Encoding: 70 70 43
Width: 72
Flags: HW
LayerCount: 2
Fore
SplineSet
48 108 m 1
 59 108 l 1
 59 97 l 1
 48 97 l 1
 48 108 l 1
36 60 m 1
 47 60 l 1
 47 49 l 1
 36 49 l 1
 36 60 l 1
36 108 m 1
 47 108 l 1
 47 97 l 1
 36 97 l 1
 36 108 l 1
24 60 m 1
 35 60 l 1
 35 49 l 1
 24 49 l 1
 24 60 l 1
24 108 m 1
 35 108 l 1
 35 97 l 1
 24 97 l 1
 24 108 l 1
12 60 m 1
 23 60 l 1
 23 49 l 1
 12 49 l 1
 12 60 l 1
12 108 m 1
 23 108 l 1
 23 97 l 1
 12 97 l 1
 12 108 l 1
0 12 m 1
 11 12 l 1
 11 1 l 1
 0 1 l 1
 0 12 l 1
0 24 m 1
 11 24 l 1
 11 13 l 1
 0 13 l 1
 0 24 l 1
0 36 m 1
 11 36 l 1
 11 25 l 1
 0 25 l 1
 0 36 l 1
0 48 m 1
 11 48 l 1
 11 37 l 1
 0 37 l 1
 0 48 l 1
0 60 m 1
 11 60 l 1
 11 49 l 1
 0 49 l 1
 0 60 l 1
0 72 m 1
 11 72 l 1
 11 61 l 1
 0 61 l 1
 0 72 l 1
0 84 m 1
 11 84 l 1
 11 73 l 1
 0 73 l 1
 0 84 l 1
0 96 m 1
 11 96 l 1
 11 85 l 1
 0 85 l 1
 0 96 l 1
0 108 m 1
 11 108 l 1
 11 97 l 1
 0 97 l 1
 0 108 l 1
EndSplineSet
EndChar

StartChar: X
Encoding: 88 88 44
Width: 72
Flags: HW
LayerCount: 2
Fore
SplineSet
48 12 m 1
 59 12 l 1
 59 1 l 1
 48 1 l 1
 48 12 l 1
48 24 m 1
 59 24 l 1
 59 13 l 1
 48 13 l 1
 48 24 l 1
48 96 m 1
 59 96 l 1
 59 85 l 1
 48 85 l 1
 48 96 l 1
48 108 m 1
 59 108 l 1
 59 97 l 1
 48 97 l 1
 48 108 l 1
36 36 m 1
 47 36 l 1
 47 25 l 1
 36 25 l 1
 36 36 l 1
36 48 m 1
 47 48 l 1
 47 37 l 1
 36 37 l 1
 36 48 l 1
36 84 m 1
 47 84 l 1
 47 73 l 1
 36 73 l 1
 36 84 l 1
24 60 m 1
 35 60 l 1
 35 49 l 1
 24 49 l 1
 24 60 l 1
24 72 m 1
 35 72 l 1
 35 61 l 1
 24 61 l 1
 24 72 l 1
12 36 m 1
 23 36 l 1
 23 25 l 1
 12 25 l 1
 12 36 l 1
12 48 m 1
 23 48 l 1
 23 37 l 1
 12 37 l 1
 12 48 l 1
12 84 m 1
 23 84 l 1
 23 73 l 1
 12 73 l 1
 12 84 l 1
0 12 m 1
 11 12 l 1
 11 1 l 1
 0 1 l 1
 0 12 l 1
0 24 m 1
 11 24 l 1
 11 13 l 1
 0 13 l 1
 0 24 l 1
0 96 m 1
 11 96 l 1
 11 85 l 1
 0 85 l 1
 0 96 l 1
0 108 m 1
 11 108 l 1
 11 97 l 1
 0 97 l 1
 0 108 l 1
EndSplineSet
EndChar

StartChar: Y
Encoding: 89 89 45
Width: 72
Flags: HW
LayerCount: 2
Fore
SplineSet
48 96 m 1
 59 96 l 1
 59 85 l 1
 48 85 l 1
 48 96 l 1
48 108 m 1
 59 108 l 1
 59 97 l 1
 48 97 l 1
 48 108 l 1
36 72 m 1
 47 72 l 1
 47 61 l 1
 36 61 l 1
 36 72 l 1
36 84 m 1
 47 84 l 1
 47 73 l 1
 36 73 l 1
 36 84 l 1
24 12 m 1
 35 12 l 1
 35 1 l 1
 24 1 l 1
 24 12 l 1
24 24 m 1
 35 24 l 1
 35 13 l 1
 24 13 l 1
 24 24 l 1
24 36 m 1
 35 36 l 1
 35 25 l 1
 24 25 l 1
 24 36 l 1
24 48 m 1
 35 48 l 1
 35 37 l 1
 24 37 l 1
 24 48 l 1
24 60 m 1
 35 60 l 1
 35 49 l 1
 24 49 l 1
 24 60 l 1
12 72 m 1
 23 72 l 1
 23 61 l 1
 12 61 l 1
 12 72 l 1
12 84 m 1
 23 84 l 1
 23 73 l 1
 12 73 l 1
 12 84 l 1
0 96 m 1
 11 96 l 1
 11 85 l 1
 0 85 l 1
 0 96 l 1
0 108 m 1
 11 108 l 1
 11 97 l 1
 0 97 l 1
 0 108 l 1
EndSplineSet
EndChar

StartChar: M
Encoding: 77 77 46
Width: 72
Flags: HW
LayerCount: 2
Fore
SplineSet
48 12 m 1
 59 12 l 1
 59 1 l 1
 48 1 l 1
 48 12 l 1
48 24 m 1
 59 24 l 1
 59 13 l 1
 48 13 l 1
 48 24 l 1
48 36 m 1
 59 36 l 1
 59 25 l 1
 48 25 l 1
 48 36 l 1
48 48 m 1
 59 48 l 1
 59 37 l 1
 48 37 l 1
 48 48 l 1
48 60 m 1
 59 60 l 1
 59 49 l 1
 48 49 l 1
 48 60 l 1
48 72 m 1
 59 72 l 1
 59 61 l 1
 48 61 l 1
 48 72 l 1
48 84 m 1
 59 84 l 1
 59 73 l 1
 48 73 l 1
 48 84 l 1
48 96 m 1
 59 96 l 1
 59 85 l 1
 48 85 l 1
 48 96 l 1
48 108 m 1
 59 108 l 1
 59 97 l 1
 48 97 l 1
 48 108 l 1
36 72 m 1
 47 72 l 1
 47 61 l 1
 36 61 l 1
 36 72 l 1
36 84 m 1
 47 84 l 1
 47 73 l 1
 36 73 l 1
 36 84 l 1
24 48 m 1
 35 48 l 1
 35 37 l 1
 24 37 l 1
 24 48 l 1
24 60 m 1
 35 60 l 1
 35 49 l 1
 24 49 l 1
 24 60 l 1
12 72 m 1
 23 72 l 1
 23 61 l 1
 12 61 l 1
 12 72 l 1
12 84 m 1
 23 84 l 1
 23 73 l 1
 12 73 l 1
 12 84 l 1
0 12 m 1
 11 12 l 1
 11 1 l 1
 0 1 l 1
 0 12 l 1
0 24 m 1
 11 24 l 1
 11 13 l 1
 0 13 l 1
 0 24 l 1
0 36 m 1
 11 36 l 1
 11 25 l 1
 0 25 l 1
 0 36 l 1
0 48 m 1
 11 48 l 1
 11 37 l 1
 0 37 l 1
 0 48 l 1
0 60 m 1
 11 60 l 1
 11 49 l 1
 0 49 l 1
 0 60 l 1
0 72 m 1
 11 72 l 1
 11 61 l 1
 0 61 l 1
 0 72 l 1
0 84 m 1
 11 84 l 1
 11 73 l 1
 0 73 l 1
 0 84 l 1
0 96 m 1
 11 96 l 1
 11 85 l 1
 0 85 l 1
 0 96 l 1
0 108 m 1
 11 108 l 1
 11 97 l 1
 0 97 l 1
 0 108 l 1
EndSplineSet
EndChar

StartChar: arrowright
Encoding: 8594 8594 47
Width: 72
Flags: HW
LayerCount: 2
Fore
SplineSet
48 60 m 1
 59 60 l 1
 59 49 l 1
 48 49 l 1
 48 60 l 1
36 48 m 1
 47 48 l 1
 47 37 l 1
 36 37 l 1
 36 48 l 1
36 60 m 1
 47 60 l 1
 47 49 l 1
 36 49 l 1
 36 60 l 1
36 72 m 1
 47 72 l 1
 47 61 l 1
 36 61 l 1
 36 72 l 1
24 36 m 1
 35 36 l 1
 35 25 l 1
 24 25 l 1
 24 36 l 1
24 60 m 1
 35 60 l 1
 35 49 l 1
 24 49 l 1
 24 60 l 1
24 84 m 1
 35 84 l 1
 35 73 l 1
 24 73 l 1
 24 84 l 1
12 60 m 1
 23 60 l 1
 23 49 l 1
 12 49 l 1
 12 60 l 1
0 60 m 1
 11 60 l 1
 11 49 l 1
 0 49 l 1
 0 60 l 1
EndSplineSet
EndChar

StartChar: uni2491
Encoding: 9361 9361 48
Width: 72
Flags: HW
LayerCount: 2
Fore
SplineSet
48 12 m 1
 59 12 l 1
 59 1 l 1
 48 1 l 1
 48 12 l 1
48 24 m 1
 59 24 l 1
 59 13 l 1
 48 13 l 1
 48 24 l 1
48 36 m 1
 59 36 l 1
 59 25 l 1
 48 25 l 1
 48 36 l 1
48 48 m 1
 59 48 l 1
 59 37 l 1
 48 37 l 1
 48 48 l 1
48 60 m 1
 59 60 l 1
 59 49 l 1
 48 49 l 1
 48 60 l 1
48 72 m 1
 59 72 l 1
 59 61 l 1
 48 61 l 1
 48 72 l 1
48 84 m 1
 59 84 l 1
 59 73 l 1
 48 73 l 1
 48 84 l 1
36 12 m 1
 47 12 l 1
 47 1 l 1
 36 1 l 1
 36 12 l 1
36 84 m 1
 47 84 l 1
 47 73 l 1
 36 73 l 1
 36 84 l 1
24 12 m 1
 35 12 l 1
 35 1 l 1
 24 1 l 1
 24 12 l 1
24 24 m 1
 35 24 l 1
 35 13 l 1
 24 13 l 1
 24 24 l 1
24 36 m 1
 35 36 l 1
 35 25 l 1
 24 25 l 1
 24 36 l 1
24 48 m 1
 35 48 l 1
 35 37 l 1
 24 37 l 1
 24 48 l 1
24 60 m 1
 35 60 l 1
 35 49 l 1
 24 49 l 1
 24 60 l 1
24 72 m 1
 35 72 l 1
 35 61 l 1
 24 61 l 1
 24 72 l 1
24 84 m 1
 35 84 l 1
 35 73 l 1
 24 73 l 1
 24 84 l 1
0 12 m 1
 11 12 l 1
 11 1 l 1
 0 1 l 1
 0 12 l 1
0 24 m 1
 11 24 l 1
 11 13 l 1
 0 13 l 1
 0 24 l 1
0 36 m 1
 11 36 l 1
 11 25 l 1
 0 25 l 1
 0 36 l 1
0 48 m 1
 11 48 l 1
 11 37 l 1
 0 37 l 1
 0 48 l 1
0 60 m 1
 11 60 l 1
 11 49 l 1
 0 49 l 1
 0 60 l 1
0 72 m 1
 11 72 l 1
 11 61 l 1
 0 61 l 1
 0 72 l 1
0 84 m 1
 11 84 l 1
 11 73 l 1
 0 73 l 1
 0 84 l 1
EndSplineSet
EndChar

StartChar: exclam
Encoding: 33 33 49
Width: 72
Flags: HW
LayerCount: 2
Fore
SplineSet
24 12 m 1
 35 12 l 1
 35 1 l 1
 24 1 l 1
 24 12 l 1
24 24 m 1
 35 24 l 1
 35 13 l 1
 24 13 l 1
 24 24 l 1
24 48 m 1
 35 48 l 1
 35 37 l 1
 24 37 l 1
 24 48 l 1
24 60 m 1
 35 60 l 1
 35 49 l 1
 24 49 l 1
 24 60 l 1
24 72 m 1
 35 72 l 1
 35 61 l 1
 24 61 l 1
 24 72 l 1
24 84 m 1
 35 84 l 1
 35 73 l 1
 24 73 l 1
 24 84 l 1
24 96 m 1
 35 96 l 1
 35 85 l 1
 24 85 l 1
 24 96 l 1
24 108 m 1
 35 108 l 1
 35 97 l 1
 24 97 l 1
 24 108 l 1
EndSplineSet
EndChar
